<mxfile host="app.diagrams.net" modified="2022-11-02T13:06:02.224Z" agent="5.0 (Windows NT 10.0; Win64; x64) AppleWebKit/537.36 (KHTML, like Gecko) Chrome/107.0.0.0 Safari/537.36" etag="D9BR5fVws6XufltwTHu8" version="20.5.1" type="github">
  <diagram id="C5RBs43oDa-KdzZeNtuy" name="Page-1">
    <mxGraphModel dx="1016" dy="594" grid="1" gridSize="10" guides="1" tooltips="1" connect="1" arrows="1" fold="1" page="1" pageScale="1" pageWidth="827" pageHeight="1169" math="0" shadow="0">
      <root>
        <mxCell id="WIyWlLk6GJQsqaUBKTNV-0" />
        <mxCell id="WIyWlLk6GJQsqaUBKTNV-1" parent="WIyWlLk6GJQsqaUBKTNV-0" />
        <mxCell id="jJ3IzMKyu3KRprc1xlH8-70" style="edgeStyle=orthogonalEdgeStyle;rounded=0;orthogonalLoop=1;jettySize=auto;html=1;" edge="1" parent="WIyWlLk6GJQsqaUBKTNV-1" source="jJ3IzMKyu3KRprc1xlH8-61" target="jJ3IzMKyu3KRprc1xlH8-62">
          <mxGeometry relative="1" as="geometry" />
        </mxCell>
        <mxCell id="jJ3IzMKyu3KRprc1xlH8-61" value="Register" style="ellipse;whiteSpace=wrap;html=1;" vertex="1" parent="WIyWlLk6GJQsqaUBKTNV-1">
          <mxGeometry x="230" y="60" width="120" height="80" as="geometry" />
        </mxCell>
        <mxCell id="jJ3IzMKyu3KRprc1xlH8-62" value="Actor" style="shape=umlActor;verticalLabelPosition=bottom;verticalAlign=top;html=1;outlineConnect=0;" vertex="1" parent="WIyWlLk6GJQsqaUBKTNV-1">
          <mxGeometry x="110" y="140" width="30" height="60" as="geometry" />
        </mxCell>
        <mxCell id="jJ3IzMKyu3KRprc1xlH8-63" value="DBA" style="text;html=1;align=center;verticalAlign=middle;resizable=0;points=[];autosize=1;strokeColor=none;fillColor=none;" vertex="1" parent="WIyWlLk6GJQsqaUBKTNV-1">
          <mxGeometry x="265" y="5" width="50" height="30" as="geometry" />
        </mxCell>
        <mxCell id="jJ3IzMKyu3KRprc1xlH8-72" style="edgeStyle=orthogonalEdgeStyle;rounded=0;orthogonalLoop=1;jettySize=auto;html=1;" edge="1" parent="WIyWlLk6GJQsqaUBKTNV-1" source="jJ3IzMKyu3KRprc1xlH8-64" target="jJ3IzMKyu3KRprc1xlH8-62">
          <mxGeometry relative="1" as="geometry" />
        </mxCell>
        <mxCell id="jJ3IzMKyu3KRprc1xlH8-77" style="edgeStyle=orthogonalEdgeStyle;rounded=0;orthogonalLoop=1;jettySize=auto;html=1;entryX=0.01;entryY=0.369;entryDx=0;entryDy=0;entryPerimeter=0;" edge="1" parent="WIyWlLk6GJQsqaUBKTNV-1" source="jJ3IzMKyu3KRprc1xlH8-64" target="jJ3IzMKyu3KRprc1xlH8-66">
          <mxGeometry relative="1" as="geometry" />
        </mxCell>
        <mxCell id="jJ3IzMKyu3KRprc1xlH8-64" value="Bestil ting&lt;span style=&quot;color: rgba(0, 0, 0, 0); font-family: monospace; font-size: 0px; text-align: start;&quot;&gt;%3CmxGraphModel%3E%3Croot%3E%3CmxCell%20id%3D%220%22%2F%3E%3CmxCell%20id%3D%221%22%20parent%3D%220%22%2F%3E%3CmxCell%20id%3D%222%22%20value%3D%22Register%22%20style%3D%22ellipse%3BwhiteSpace%3Dwrap%3Bhtml%3D1%3B%22%20vertex%3D%221%22%20parent%3D%221%22%3E%3CmxGeometry%20x%3D%22240%22%20y%3D%2250%22%20width%3D%22120%22%20height%3D%2280%22%20as%3D%22geometry%22%2F%3E%3C%2FmxCell%3E%3C%2Froot%3E%3C%2FmxGraphModel%3E&amp;nbsp;&lt;/span&gt;" style="ellipse;whiteSpace=wrap;html=1;" vertex="1" parent="WIyWlLk6GJQsqaUBKTNV-1">
          <mxGeometry x="230" y="180" width="120" height="80" as="geometry" />
        </mxCell>
        <mxCell id="jJ3IzMKyu3KRprc1xlH8-76" style="edgeStyle=orthogonalEdgeStyle;rounded=0;orthogonalLoop=1;jettySize=auto;html=1;exitX=0;exitY=0.5;exitDx=0;exitDy=0;entryX=1.006;entryY=0.401;entryDx=0;entryDy=0;entryPerimeter=0;" edge="1" parent="WIyWlLk6GJQsqaUBKTNV-1" source="jJ3IzMKyu3KRprc1xlH8-65" target="jJ3IzMKyu3KRprc1xlH8-64">
          <mxGeometry relative="1" as="geometry" />
        </mxCell>
        <mxCell id="jJ3IzMKyu3KRprc1xlH8-65" value="Check ud" style="ellipse;whiteSpace=wrap;html=1;" vertex="1" parent="WIyWlLk6GJQsqaUBKTNV-1">
          <mxGeometry x="430" y="130" width="120" height="80" as="geometry" />
        </mxCell>
        <mxCell id="jJ3IzMKyu3KRprc1xlH8-66" value="log in&amp;nbsp;" style="ellipse;whiteSpace=wrap;html=1;" vertex="1" parent="WIyWlLk6GJQsqaUBKTNV-1">
          <mxGeometry x="430" y="280" width="120" height="80" as="geometry" />
        </mxCell>
        <mxCell id="jJ3IzMKyu3KRprc1xlH8-73" style="edgeStyle=orthogonalEdgeStyle;rounded=0;orthogonalLoop=1;jettySize=auto;html=1;" edge="1" parent="WIyWlLk6GJQsqaUBKTNV-1" source="jJ3IzMKyu3KRprc1xlH8-67">
          <mxGeometry relative="1" as="geometry">
            <mxPoint x="140" y="170" as="targetPoint" />
          </mxGeometry>
        </mxCell>
        <mxCell id="jJ3IzMKyu3KRprc1xlH8-78" style="edgeStyle=orthogonalEdgeStyle;rounded=0;orthogonalLoop=1;jettySize=auto;html=1;" edge="1" parent="WIyWlLk6GJQsqaUBKTNV-1" source="jJ3IzMKyu3KRprc1xlH8-67" target="jJ3IzMKyu3KRprc1xlH8-66">
          <mxGeometry relative="1" as="geometry" />
        </mxCell>
        <mxCell id="jJ3IzMKyu3KRprc1xlH8-67" value="sÃ¦lge ting" style="ellipse;whiteSpace=wrap;html=1;" vertex="1" parent="WIyWlLk6GJQsqaUBKTNV-1">
          <mxGeometry x="230" y="300" width="120" height="80" as="geometry" />
        </mxCell>
        <mxCell id="jJ3IzMKyu3KRprc1xlH8-74" style="edgeStyle=orthogonalEdgeStyle;rounded=0;orthogonalLoop=1;jettySize=auto;html=1;" edge="1" parent="WIyWlLk6GJQsqaUBKTNV-1" source="jJ3IzMKyu3KRprc1xlH8-68">
          <mxGeometry relative="1" as="geometry">
            <mxPoint x="140" y="170" as="targetPoint" />
          </mxGeometry>
        </mxCell>
        <mxCell id="jJ3IzMKyu3KRprc1xlH8-79" style="edgeStyle=orthogonalEdgeStyle;rounded=0;orthogonalLoop=1;jettySize=auto;html=1;" edge="1" parent="WIyWlLk6GJQsqaUBKTNV-1" source="jJ3IzMKyu3KRprc1xlH8-68" target="jJ3IzMKyu3KRprc1xlH8-66">
          <mxGeometry relative="1" as="geometry" />
        </mxCell>
        <mxCell id="jJ3IzMKyu3KRprc1xlH8-68" value="Anmeldelser" style="ellipse;whiteSpace=wrap;html=1;" vertex="1" parent="WIyWlLk6GJQsqaUBKTNV-1">
          <mxGeometry x="230" y="400" width="120" height="80" as="geometry" />
        </mxCell>
        <mxCell id="jJ3IzMKyu3KRprc1xlH8-75" style="edgeStyle=orthogonalEdgeStyle;rounded=0;orthogonalLoop=1;jettySize=auto;html=1;" edge="1" parent="WIyWlLk6GJQsqaUBKTNV-1" source="jJ3IzMKyu3KRprc1xlH8-69">
          <mxGeometry relative="1" as="geometry">
            <mxPoint x="140" y="170" as="targetPoint" />
          </mxGeometry>
        </mxCell>
        <mxCell id="jJ3IzMKyu3KRprc1xlH8-80" style="edgeStyle=orthogonalEdgeStyle;rounded=0;orthogonalLoop=1;jettySize=auto;html=1;entryX=0.5;entryY=1;entryDx=0;entryDy=0;" edge="1" parent="WIyWlLk6GJQsqaUBKTNV-1" source="jJ3IzMKyu3KRprc1xlH8-69" target="jJ3IzMKyu3KRprc1xlH8-66">
          <mxGeometry relative="1" as="geometry" />
        </mxCell>
        <mxCell id="jJ3IzMKyu3KRprc1xlH8-69" value="Kommentare" style="ellipse;whiteSpace=wrap;html=1;" vertex="1" parent="WIyWlLk6GJQsqaUBKTNV-1">
          <mxGeometry x="220" y="500" width="120" height="80" as="geometry" />
        </mxCell>
      </root>
    </mxGraphModel>
  </diagram>
</mxfile>
